<svg width="28" height="28" viewBox="0 0 28 28" fill="none" xmlns="http://www.w3.org/2000/svg">
<path fill-rule="evenodd" clip-rule="evenodd" d="M8.66797 0.667969H24.668C26.1346 0.667969 27.3346 1.86797 27.3346 3.33464V19.3346C27.3346 20.8013 26.1346 22.0013 24.668 22.0013H8.66797C7.2013 22.0013 6.0013 20.8013 6.0013 19.3346V3.33464C6.0013 1.86797 7.2013 0.667969 8.66797 0.667969ZM8.66797 19.3346H24.668V3.33464H8.66797V19.3346ZM3.33464 6.0013H0.667969V24.668C0.667969 26.1346 1.86797 27.3346 3.33464 27.3346H22.0013V24.668H3.33464V6.0013ZM19.3346 10.0013V14.0013C19.3346 14.7346 18.7346 15.3346 18.0013 15.3346H15.3346V8.66797H18.0013C18.7346 8.66797 19.3346 9.26797 19.3346 10.0013ZM16.668 10.0013H18.0013V14.0013H16.668V10.0013ZM23.3346 12.668H22.0013V15.3346H20.668V8.66797H23.3346V10.0013H22.0013V11.3346H23.3346V12.668ZM11.3346 12.668H12.668C13.4013 12.668 14.0013 12.068 14.0013 11.3346V10.0013C14.0013 9.26797 13.4013 8.66797 12.668 8.66797H10.0013V15.3346H11.3346V12.668ZM12.668 10.0013H11.3346V11.3346H12.668V10.0013Z" fill="#EE7171"/>
</svg>
